# xmcd
#
# Track frame offsets: 
#        150
#        28225
#        55400
#        73260
#        91587
#        125352
#        154695
#        183532
#        213500
#
# Disc length: 3419 seconds
#
# Revision: 1
# Processed by: cddbd v1.5.2PL0 Copyright (c) Steve Scherf et al.
# Submitted via: ExactAudioCopy v0.99pb5
#
DISCID=7e0d5909
DTITLE=Lester Bowie - Mirage CD 2
DYEAR=1999
DGENRE=Jazz
TTITLE0=Bugle Boy Bop
TTITLE1=Go Bo
TTITLE2=Cootie's Caravan Fan
TTITLE3=Latin Recovery
TTITLE4=The Girth of the Cool
TTITLE5=Chop 'N' Rock
TTITLE6=Finito Benito
TTITLE7=Mirage
TTITLE8=Rope-A-Dope
EXTD=YEAR: 1999
EXTT0=
EXTT1=
EXTT2=
EXTT3=
EXTT4=
EXTT5=
EXTT6=
EXTT7=
EXTT8=
PLAYORDER=
